<svg width="890" height="144" viewBox="0 0 890 144" fill="none" xmlns="http://www.w3.org/2000/svg">
<rect y="24" width="890" height="105" rx="52.5" fill="#8FD6D1"/>
<path d="M28.2863 88V58.72H19.8863V54.4H43.4062V58.72H35.0063V88H28.2863ZM47.235 56.32L49.155 54.4H53.955V65.68C54.275 65.36 54.739 65.008 55.347 64.624C56.627 63.888 57.923 63.52 59.235 63.52C62.147 63.52 64.387 64.32 65.955 65.92C67.555 67.488 68.355 69.728 68.355 72.64V88H61.635V72.64C61.635 71.136 61.315 70 60.675 69.232C60.035 68.464 59.155 68.08 58.035 68.08C56.979 68.08 55.971 68.56 55.011 69.52C54.691 69.904 54.339 70.384 53.955 70.96V88H47.235V56.32ZM78.2044 60.88C77.2444 60.88 76.3964 60.528 75.6604 59.824C74.9564 59.088 74.6044 58.24 74.6044 57.28C74.6044 56.32 74.9564 55.488 75.6604 54.784C76.3964 54.048 77.2444 53.68 78.2044 53.68C79.1644 53.68 79.9964 54.048 80.7004 54.784C81.4364 55.488 81.8044 56.32 81.8044 57.28C81.8044 58.24 81.4364 59.088 80.7004 59.824C79.9964 60.528 79.1644 60.88 78.2044 60.88ZM74.8444 88V64H81.5644V88H74.8444ZM88.2975 64H93.0975L93.5775 66.88H93.8175C94.1375 66.4 94.6815 65.84 95.4495 65.2C96.9535 64.08 98.5695 63.52 100.298 63.52C103.21 63.52 105.45 64.32 107.018 65.92C108.618 67.488 109.418 69.728 109.418 72.64V88H102.698V72.64C102.698 71.136 102.378 70 101.738 69.232C101.098 68.464 100.218 68.08 99.0975 68.08C98.0415 68.08 97.0335 68.56 96.0735 69.52C95.7535 69.904 95.4015 70.384 95.0175 70.96V88H88.2975V64ZM124.787 98.08C122.643 98.08 120.611 97.68 118.691 96.88C117.955 96.592 117.187 96.192 116.387 95.68L118.547 91.84H119.027C119.443 92.192 119.907 92.512 120.419 92.8C121.539 93.44 122.835 93.76 124.307 93.76C125.875 93.76 127.107 93.296 128.003 92.368C128.899 91.472 129.347 90.176 129.347 88.48V87.04C128.899 87.36 128.451 87.6 128.003 87.76C126.851 88.24 125.699 88.48 124.547 88.48C121.443 88.48 118.979 87.424 117.155 85.312C115.363 83.2 114.467 80.096 114.467 76C114.467 71.936 115.347 68.848 117.107 66.736C118.867 64.592 121.187 63.52 124.067 63.52C125.795 63.52 127.411 64.08 128.915 65.2C129.555 65.744 130.099 66.304 130.547 66.88H130.787L131.267 64H136.067V88.48C136.067 90.336 135.619 91.984 134.723 93.424C133.827 94.896 132.531 96.032 130.835 96.832C129.139 97.664 127.123 98.08 124.787 98.08ZM125.747 84.16C126.707 84.16 127.571 83.92 128.339 83.44C128.691 83.248 129.027 83.008 129.347 82.72V70.96C128.963 70.384 128.611 69.904 128.291 69.52C127.331 68.56 126.323 68.08 125.267 68.08C124.051 68.08 123.059 68.704 122.291 69.952C121.555 71.2 121.187 73.216 121.187 76C121.187 78.944 121.587 81.04 122.387 82.288C123.187 83.536 124.307 84.16 125.747 84.16ZM150.686 88.48C148.158 88.48 145.79 88.08 143.582 87.28C142.75 86.992 141.838 86.592 140.846 86.08L143.006 82.24H143.486C144.094 82.624 144.67 82.944 145.214 83.2C146.558 83.84 148.142 84.16 149.966 84.16C151.566 84.16 152.718 83.92 153.422 83.44C154.158 82.928 154.526 82.272 154.526 81.472C154.526 80.704 154.126 80.096 153.326 79.648C152.526 79.2 151.294 78.72 149.63 78.208C147.87 77.632 146.446 77.088 145.358 76.576C144.27 76.064 143.326 75.328 142.526 74.368C141.726 73.408 141.326 72.192 141.326 70.72C141.326 68.576 142.174 66.848 143.87 65.536C145.566 64.192 148.078 63.52 151.406 63.52C153.422 63.52 155.598 63.92 157.934 64.72C158.734 65.008 159.598 65.408 160.526 65.92L158.366 69.76H157.886C157.31 69.344 156.766 69.024 156.254 68.8C154.91 68.16 153.454 67.84 151.886 67.84C150.638 67.84 149.678 68.08 149.006 68.56C148.366 69.008 148.046 69.568 148.046 70.24C148.046 70.976 148.43 71.568 149.198 72.016C149.998 72.464 151.246 72.96 152.942 73.504C154.638 74.048 156.046 74.592 157.166 75.136C158.286 75.648 159.246 76.384 160.046 77.344C160.846 78.304 161.246 79.52 161.246 80.992C161.246 83.296 160.382 85.12 158.654 86.464C156.926 87.808 154.27 88.48 150.686 88.48ZM184.054 98.08C182.774 98.08 181.526 97.84 180.31 97.36C179.702 97.168 179.19 96.928 178.774 96.64L180.454 92.56H180.934C181.254 92.88 181.51 93.088 181.702 93.184C182.31 93.568 182.934 93.76 183.574 93.76C184.342 93.76 185.046 93.472 185.686 92.896C186.326 92.32 186.79 91.488 187.078 90.4L187.75 88H185.926L178.006 64H184.294L189.094 79.6C189.222 80.112 189.318 80.672 189.382 81.28L189.478 82.24H189.67L189.766 81.28C189.83 80.672 189.926 80.112 190.054 79.6L194.134 64H200.854L192.934 90.4C191.334 95.52 188.374 98.08 184.054 98.08ZM214.288 88.48C210.736 88.48 208 87.44 206.08 85.36C204.192 83.28 203.248 80.16 203.248 76C203.248 71.84 204.192 68.72 206.08 66.64C208 64.56 210.736 63.52 214.288 63.52C217.84 63.52 220.56 64.56 222.448 66.64C224.368 68.72 225.328 71.84 225.328 76C225.328 80.16 224.368 83.28 222.448 85.36C220.56 87.44 217.84 88.48 214.288 88.48ZM214.288 84.16C217.168 84.16 218.608 81.44 218.608 76C218.608 70.56 217.168 67.84 214.288 67.84C211.408 67.84 209.968 70.56 209.968 76C209.968 81.44 211.408 84.16 214.288 84.16ZM239.73 88.48C236.818 88.48 234.562 87.696 232.962 86.128C231.394 84.528 230.61 82.272 230.61 79.36V64H237.33V79.36C237.33 80.864 237.65 82 238.29 82.768C238.93 83.536 239.81 83.92 240.93 83.92C241.986 83.92 242.994 83.44 243.954 82.48C244.274 82.096 244.626 81.616 245.01 81.04V64H251.73V88H246.93L246.45 85.12H246.21C245.666 85.824 245.122 86.384 244.578 86.8C243.234 87.92 241.618 88.48 239.73 88.48ZM270.204 64H276.444L279.804 77.2C279.932 77.68 280.028 78.24 280.092 78.88L280.188 79.84H280.38L280.476 78.88C280.54 78.272 280.636 77.712 280.764 77.2L284.508 64H289.116L292.812 77.2C292.94 77.68 293.036 78.24 293.1 78.88L293.196 79.84H293.388L293.484 78.88C293.548 78.24 293.644 77.68 293.772 77.2L297.132 64H303.372L296.892 88H290.94L287.1 73.84C286.972 73.328 286.876 72.768 286.812 72.16L286.716 71.2H286.524L286.428 72.16C286.364 72.768 286.268 73.328 286.14 73.84L282.3 88H276.684L270.204 64ZM310.798 60.88C309.838 60.88 308.99 60.528 308.254 59.824C307.55 59.088 307.198 58.24 307.198 57.28C307.198 56.32 307.55 55.488 308.254 54.784C308.99 54.048 309.838 53.68 310.798 53.68C311.758 53.68 312.59 54.048 313.294 54.784C314.03 55.488 314.398 56.32 314.398 57.28C314.398 58.24 314.03 59.088 313.294 59.824C312.59 60.528 311.758 60.88 310.798 60.88ZM307.438 88V64H314.158V88H307.438ZM320.891 88V56.32L322.811 54.4H327.611V88H320.891ZM334.344 88V56.32L336.264 54.4H341.064V88H334.344ZM369.628 88.48C366.812 88.48 364.62 87.808 363.052 86.464C361.516 85.088 360.748 83.28 360.748 81.04C360.748 78.64 361.612 76.768 363.34 75.424C365.1 74.048 367.836 73.36 371.548 73.36H374.908V72.64C374.908 70.944 374.54 69.728 373.804 68.992C373.068 68.224 371.916 67.84 370.348 67.84C369.004 67.84 367.772 68.16 366.652 68.8C366.204 69.024 365.756 69.344 365.308 69.76H364.828L362.668 65.92C363.436 65.408 364.188 65.008 364.924 64.72C367.004 63.92 368.972 63.52 370.828 63.52C373.068 63.52 375.004 63.92 376.636 64.72C378.268 65.488 379.5 66.56 380.332 67.936C381.196 69.312 381.628 70.88 381.628 72.64V88H376.828L376.348 85.12H376.108C375.564 85.824 375.02 86.384 374.476 86.8C373.132 87.92 371.516 88.48 369.628 88.48ZM370.828 83.92C371.82 83.92 372.796 83.44 373.756 82.48C374.204 82.032 374.588 81.552 374.908 81.04V77.68H371.548C368.828 77.68 367.468 78.8 367.468 81.04C367.468 81.904 367.756 82.608 368.332 83.152C368.94 83.664 369.772 83.92 370.828 83.92ZM398.43 88.48C390.59 88.48 386.67 84.32 386.67 76C386.67 71.84 387.63 68.72 389.55 66.64C391.47 64.56 394.27 63.52 397.95 63.52C399.774 63.52 401.726 63.92 403.806 64.72C404.446 64.976 405.214 65.376 406.11 65.92L403.95 69.76H403.47C403.022 69.344 402.574 69.024 402.126 68.8C401.006 68.16 399.774 67.84 398.43 67.84C396.798 67.84 395.55 68.464 394.686 69.712C393.822 70.928 393.39 73.024 393.39 76C393.39 79.008 393.838 81.12 394.734 82.336C395.63 83.552 397.022 84.16 398.91 84.16C400.254 84.16 401.486 83.84 402.606 83.2C403.054 82.976 403.502 82.656 403.95 82.24H404.43L406.59 86.08C405.694 86.624 404.926 87.024 404.286 87.28C402.366 88.08 400.414 88.48 398.43 88.48ZM421.211 88.48C413.371 88.48 409.451 84.32 409.451 76C409.451 71.84 410.411 68.72 412.331 66.64C414.251 64.56 417.051 63.52 420.731 63.52C422.555 63.52 424.507 63.92 426.587 64.72C427.227 64.976 427.995 65.376 428.891 65.92L426.731 69.76H426.251C425.803 69.344 425.355 69.024 424.907 68.8C423.787 68.16 422.555 67.84 421.211 67.84C419.579 67.84 418.331 68.464 417.467 69.712C416.603 70.928 416.171 73.024 416.171 76C416.171 79.008 416.619 81.12 417.515 82.336C418.411 83.552 419.803 84.16 421.691 84.16C423.035 84.16 424.267 83.84 425.387 83.2C425.835 82.976 426.283 82.656 426.731 82.24H427.211L429.371 86.08C428.475 86.624 427.707 87.024 427.067 87.28C425.147 88.08 423.195 88.48 421.211 88.48ZM443.273 88.48C439.721 88.48 436.985 87.44 435.065 85.36C433.177 83.28 432.233 80.16 432.233 76C432.233 71.84 433.177 68.72 435.065 66.64C436.985 64.56 439.721 63.52 443.273 63.52C446.825 63.52 449.545 64.56 451.433 66.64C453.353 68.72 454.312 71.84 454.312 76C454.312 80.16 453.353 83.28 451.433 85.36C449.545 87.44 446.825 88.48 443.273 88.48ZM443.273 84.16C446.153 84.16 447.593 81.44 447.593 76C447.593 70.56 446.153 67.84 443.273 67.84C440.393 67.84 438.953 70.56 438.953 76C438.953 81.44 440.393 84.16 443.273 84.16ZM459.594 64H464.394L464.874 66.88H465.114C465.466 66.368 465.978 65.808 466.65 65.2C468.026 64.08 469.514 63.52 471.114 63.52C473.066 63.52 474.698 64.08 476.01 65.2C476.586 65.744 477.034 66.304 477.354 66.88C477.802 66.336 478.426 65.776 479.226 65.2C481.018 64.08 482.794 63.52 484.554 63.52C487.242 63.52 489.354 64.32 490.89 65.92C492.426 67.52 493.194 69.76 493.194 72.64V88H486.474V72.64C486.474 71.168 486.17 70.048 485.562 69.28C484.986 68.48 484.25 68.08 483.354 68.08C482.49 68.08 481.626 68.48 480.762 69.28C480.538 69.504 480.202 69.904 479.754 70.48V88H473.034V72.64C473.034 71.168 472.73 70.048 472.122 69.28C471.546 68.48 470.81 68.08 469.914 68.08C468.89 68.08 467.994 68.56 467.226 69.52C466.81 70.064 466.506 70.544 466.314 70.96V88H459.594V64ZM499.673 64H504.473L504.953 66.88H505.193C505.513 66.4 506.057 65.84 506.825 65.2C508.329 64.08 509.945 63.52 511.673 63.52C514.553 63.52 516.873 64.592 518.633 66.736C520.393 68.848 521.273 71.936 521.273 76C521.273 80.096 520.361 83.2 518.537 85.312C516.745 87.424 514.297 88.48 511.193 88.48C509.881 88.48 508.713 88.24 507.689 87.76C507.177 87.568 506.745 87.328 506.393 87.04V95.68L504.473 97.6H499.673V64ZM509.993 84.16C511.433 84.16 512.553 83.536 513.353 82.288C514.153 81.04 514.553 78.944 514.553 76C514.553 73.216 514.169 71.2 513.401 69.952C512.665 68.704 511.689 68.08 510.473 68.08C509.417 68.08 508.409 68.56 507.449 69.52C507.129 69.904 506.777 70.384 506.393 70.96V82.72C506.745 83.008 507.081 83.248 507.401 83.44C508.169 83.92 509.033 84.16 509.993 84.16ZM526.532 88V56.32L528.452 54.4H533.252V88H526.532ZM543.345 60.88C542.385 60.88 541.537 60.528 540.801 59.824C540.097 59.088 539.745 58.24 539.745 57.28C539.745 56.32 540.097 55.488 540.801 54.784C541.537 54.048 542.385 53.68 543.345 53.68C544.305 53.68 545.137 54.048 545.841 54.784C546.577 55.488 546.945 56.32 546.945 57.28C546.945 58.24 546.577 59.088 545.841 59.824C545.137 60.528 544.305 60.88 543.345 60.88ZM539.985 88V64H546.705V88H539.985ZM561.358 88.48C558.83 88.48 556.462 88.08 554.254 87.28C553.422 86.992 552.51 86.592 551.518 86.08L553.678 82.24H554.158C554.766 82.624 555.342 82.944 555.886 83.2C557.23 83.84 558.814 84.16 560.638 84.16C562.238 84.16 563.39 83.92 564.094 83.44C564.83 82.928 565.198 82.272 565.198 81.472C565.198 80.704 564.798 80.096 563.998 79.648C563.198 79.2 561.966 78.72 560.302 78.208C558.542 77.632 557.118 77.088 556.03 76.576C554.942 76.064 553.998 75.328 553.198 74.368C552.398 73.408 551.998 72.192 551.998 70.72C551.998 68.576 552.846 66.848 554.542 65.536C556.238 64.192 558.75 63.52 562.078 63.52C564.094 63.52 566.27 63.92 568.606 64.72C569.406 65.008 570.27 65.408 571.198 65.92L569.038 69.76H568.558C567.982 69.344 567.438 69.024 566.926 68.8C565.582 68.16 564.126 67.84 562.558 67.84C561.31 67.84 560.35 68.08 559.678 68.56C559.038 69.008 558.718 69.568 558.718 70.24C558.718 70.976 559.102 71.568 559.87 72.016C560.67 72.464 561.918 72.96 563.614 73.504C565.31 74.048 566.718 74.592 567.838 75.136C568.958 75.648 569.918 76.384 570.718 77.344C571.518 78.304 571.918 79.52 571.918 80.992C571.918 83.296 571.054 85.12 569.326 86.464C567.598 87.808 564.942 88.48 561.358 88.48ZM576.735 56.32L578.655 54.4H583.455V65.68C583.775 65.36 584.239 65.008 584.847 64.624C586.127 63.888 587.423 63.52 588.735 63.52C591.647 63.52 593.887 64.32 595.455 65.92C597.055 67.488 597.855 69.728 597.855 72.64V88H591.135V72.64C591.135 71.136 590.815 70 590.175 69.232C589.535 68.464 588.655 68.08 587.535 68.08C586.479 68.08 585.471 68.56 584.511 69.52C584.191 69.904 583.839 70.384 583.455 70.96V88H576.735V56.32ZM630.735 88.48C628.847 88.48 627.231 87.92 625.887 86.8C625.215 86.288 624.671 85.728 624.255 85.12H624.015L623.535 88H618.735V56.32L620.655 54.4H625.455V64.96C625.775 64.736 626.207 64.496 626.751 64.24C627.903 63.76 629.071 63.52 630.255 63.52C633.359 63.52 635.807 64.576 637.599 66.688C639.423 68.8 640.335 71.904 640.335 76C640.335 80.064 639.455 83.168 637.695 85.312C635.935 87.424 633.615 88.48 630.735 88.48ZM629.535 83.92C630.751 83.92 631.727 83.296 632.463 82.048C633.231 80.8 633.615 78.784 633.615 76C633.615 73.056 633.215 70.96 632.415 69.712C631.615 68.464 630.495 67.84 629.055 67.84C628.223 67.84 627.359 68.08 626.463 68.56L625.455 69.28V81.04C625.839 81.616 626.191 82.096 626.511 82.48C627.471 83.44 628.479 83.92 629.535 83.92ZM656.154 88.48C648.154 88.48 644.154 84.32 644.154 76C644.154 71.904 645.082 68.8 646.938 66.688C648.794 64.576 651.386 63.52 654.714 63.52C658.01 63.52 660.586 64.544 662.442 66.592C664.33 68.64 665.274 71.616 665.274 75.52V76.72L663.834 78.16H650.874C650.874 82.16 652.794 84.16 656.634 84.16C657.978 84.16 659.21 83.84 660.33 83.2C660.778 82.976 661.226 82.656 661.674 82.24H662.154L664.314 86.08C663.418 86.624 662.65 87.024 662.01 87.28C660.09 88.08 658.138 88.48 656.154 88.48ZM658.554 73.84C658.554 71.92 658.17 70.448 657.402 69.424C656.666 68.368 655.77 67.84 654.714 67.84C653.658 67.84 652.746 68.368 651.978 69.424C651.242 70.448 650.874 71.92 650.874 73.84H658.554ZM670.772 68.32H668.132V64H670.772V62.08C670.772 59.616 671.588 57.648 673.22 56.176C674.884 54.672 677.188 53.92 680.132 53.92C681.636 53.92 683.316 54.32 685.172 55.12C685.78 55.376 686.5 55.776 687.332 56.32L685.172 60.16H684.692C684.276 59.808 683.86 59.488 683.444 59.2C682.516 58.56 681.572 58.24 680.612 58.24C679.748 58.24 679.012 58.592 678.404 59.296C677.796 59.968 677.492 60.896 677.492 62.08V64H683.492V68.32H677.492V88H670.772V68.32ZM697.663 88.48C694.111 88.48 691.375 87.44 689.455 85.36C687.567 83.28 686.623 80.16 686.623 76C686.623 71.84 687.567 68.72 689.455 66.64C691.375 64.56 694.111 63.52 697.663 63.52C701.215 63.52 703.935 64.56 705.823 66.64C707.743 68.72 708.703 71.84 708.703 76C708.703 80.16 707.743 83.28 705.823 85.36C703.935 87.44 701.215 88.48 697.663 88.48ZM697.663 84.16C700.543 84.16 701.983 81.44 701.983 76C701.983 70.56 700.543 67.84 697.663 67.84C694.783 67.84 693.343 70.56 693.343 76C693.343 81.44 694.783 84.16 697.663 84.16ZM713.985 64H718.785L719.265 66.88H719.505C719.825 66.4 720.369 65.84 721.137 65.2C722.641 64.08 724.257 63.52 725.985 63.52C726.817 63.52 727.633 63.6 728.433 63.76C728.945 63.888 729.329 63.968 729.585 64L728.625 68.8H728.145C727.857 68.768 727.505 68.688 727.089 68.56C726.385 68.4 725.617 68.32 724.785 68.32C723.729 68.32 722.721 68.8 721.761 69.76C721.441 70.144 721.089 70.624 720.705 71.2V88H713.985V64ZM743.483 88.48C735.483 88.48 731.483 84.32 731.483 76C731.483 71.904 732.411 68.8 734.267 66.688C736.123 64.576 738.715 63.52 742.043 63.52C745.339 63.52 747.915 64.544 749.771 66.592C751.659 68.64 752.603 71.616 752.603 75.52V76.72L751.163 78.16H738.203C738.203 82.16 740.123 84.16 743.963 84.16C745.307 84.16 746.539 83.84 747.659 83.2C748.107 82.976 748.555 82.656 749.003 82.24H749.483L751.643 86.08C750.747 86.624 749.979 87.024 749.339 87.28C747.419 88.08 745.467 88.48 743.483 88.48ZM745.883 73.84C745.883 71.92 745.499 70.448 744.731 69.424C743.995 68.368 743.099 67.84 742.043 67.84C740.987 67.84 740.075 68.368 739.307 69.424C738.571 70.448 738.203 71.92 738.203 73.84H745.883ZM769.851 84.64C769.851 82.784 770.251 81.104 771.051 79.6C771.883 78.064 772.875 76.752 774.027 75.664C775.211 74.544 776.731 73.248 778.587 71.776C780.123 70.56 781.323 69.568 782.187 68.8C783.051 68 783.771 67.12 784.347 66.16C784.923 65.168 785.211 64.128 785.211 63.04C785.211 61.568 784.731 60.4 783.771 59.536C782.843 58.672 781.483 58.24 779.691 58.24C777.835 58.24 776.139 58.608 774.603 59.344C773.867 59.76 773.323 60.112 772.971 60.4H772.491L770.331 56.56C771.067 56.048 771.899 55.616 772.827 55.264C774.907 54.368 777.355 53.92 780.171 53.92C784.043 53.92 786.971 54.784 788.955 56.512C790.939 58.208 791.931 60.544 791.931 63.52C791.931 65.216 791.515 66.784 790.683 68.224C789.851 69.664 788.859 70.912 787.707 71.968C786.555 73.024 785.019 74.272 783.099 75.712C781.595 76.864 780.411 77.808 779.547 78.544C778.715 79.28 778.011 80.096 777.435 80.992C776.859 81.856 776.571 82.752 776.571 83.68H791.931V88H769.851V84.64ZM808.234 88.48C804.458 88.48 801.466 87.072 799.258 84.256C797.082 81.44 795.994 77.088 795.994 71.2C795.994 65.312 797.082 60.96 799.258 58.144C801.466 55.328 804.458 53.92 808.234 53.92C812.01 53.92 814.986 55.344 817.162 58.192C819.37 61.008 820.474 65.344 820.474 71.2C820.474 77.056 819.37 81.408 817.162 84.256C814.986 87.072 812.01 88.48 808.234 88.48ZM808.234 84.16C811.914 84.16 813.754 79.84 813.754 71.2C813.754 62.56 811.914 58.24 808.234 58.24C804.554 58.24 802.714 62.56 802.714 71.2C802.714 79.84 804.554 84.16 808.234 84.16ZM822.913 84.64C822.913 82.784 823.313 81.104 824.113 79.6C824.945 78.064 825.937 76.752 827.089 75.664C828.273 74.544 829.793 73.248 831.649 71.776C833.185 70.56 834.385 69.568 835.249 68.8C836.113 68 836.833 67.12 837.409 66.16C837.985 65.168 838.273 64.128 838.273 63.04C838.273 61.568 837.793 60.4 836.833 59.536C835.905 58.672 834.545 58.24 832.753 58.24C830.897 58.24 829.201 58.608 827.665 59.344C826.929 59.76 826.385 60.112 826.033 60.4H825.553L823.393 56.56C824.129 56.048 824.961 55.616 825.889 55.264C827.969 54.368 830.417 53.92 833.233 53.92C837.105 53.92 840.033 54.784 842.017 56.512C844.001 58.208 844.993 60.544 844.993 63.52C844.993 65.216 844.577 66.784 843.745 68.224C842.913 69.664 841.921 70.912 840.769 71.968C839.617 73.024 838.081 74.272 836.161 75.712C834.657 76.864 833.473 77.808 832.609 78.544C831.777 79.28 831.073 80.096 830.497 80.992C829.921 81.856 829.633 82.752 829.633 83.68H844.993V88H822.913V84.64ZM856.736 88.48C853.856 88.48 851.408 88.048 849.392 87.184C848.432 86.8 847.6 86.352 846.896 85.84L849.056 82H849.536C849.856 82.32 850.4 82.688 851.168 83.104C852.64 83.808 854.336 84.16 856.256 84.16C860.896 84.16 863.216 82.24 863.216 78.4C863.216 74.24 860.896 72.16 856.256 72.16H850.736V67.84L860.816 58.72H847.616V54.4H868.496V58.72L857.936 67.84C860.496 67.84 862.672 68.304 864.464 69.232C866.256 70.128 867.616 71.376 868.544 72.976C869.472 74.576 869.936 76.384 869.936 78.4C869.936 81.504 868.832 83.968 866.624 85.792C864.416 87.584 861.12 88.48 856.736 88.48Z" fill="#FFFBFB"/>
</svg>
