<svg width="164" height="54" viewBox="0 0 164 54" fill="none" xmlns="http://www.w3.org/2000/svg">
<path d="M160.5 28.5429C160.5 51.1234 164.678 54 83.9558 54C3.23406 54 6.00002 51.1234 6.00002 28.5429C6.00002 5.9623 3.23406 0 83.9558 0C164.678 0 160.5 5.9623 160.5 28.5429Z" fill="#790C40"/>
<path d="M36.092 32.086L37.643 30.403C38.325 30.909 39.007 31.305 39.689 31.591C40.371 31.855 41.064 31.976 41.768 31.954C42.186 31.954 42.582 31.899 42.956 31.789C43.33 31.679 43.682 31.492 44.012 31.228C44.43 30.92 44.705 30.524 44.837 30.04C44.991 29.556 44.991 29.094 44.837 28.654C44.661 28.17 44.342 27.785 43.88 27.499C43.418 27.213 42.868 26.971 42.23 26.773C41.614 26.553 40.965 26.333 40.283 26.113C39.623 25.871 39.007 25.574 38.435 25.222C37.445 24.562 36.807 23.814 36.521 22.978C36.235 22.12 36.235 21.284 36.521 20.47C36.829 19.634 37.368 18.93 38.138 18.358C38.93 17.786 39.909 17.456 41.075 17.368C42.197 17.302 43.286 17.434 44.342 17.764C45.398 18.094 46.223 18.556 46.817 19.15L45.167 20.734C44.617 20.36 44.023 20.085 43.385 19.909C42.747 19.733 42.131 19.645 41.537 19.645C40.833 19.667 40.228 19.832 39.722 20.14C39.238 20.448 38.963 20.943 38.897 21.625C38.853 22.263 39.062 22.769 39.524 23.143C39.986 23.495 40.624 23.814 41.438 24.1C42.252 24.364 43.132 24.672 44.078 25.024C45.178 25.464 46.025 26.102 46.619 26.938C47.235 27.752 47.422 28.797 47.18 30.073C47.026 31.261 46.542 32.196 45.728 32.878C44.936 33.56 43.968 33.989 42.824 34.165C41.68 34.341 40.503 34.264 39.293 33.934C38.105 33.582 37.038 32.966 36.092 32.086ZM64.0481 34H61.4411V32.284C61.0011 32.944 60.3741 33.439 59.5601 33.769C58.7461 34.099 57.8551 34.275 56.8871 34.297C55.9191 34.341 54.9731 34.231 54.0491 33.967C53.1251 33.681 52.3441 33.252 51.7061 32.68C51.0461 32.108 50.5291 31.382 50.1551 30.502C49.8031 29.622 49.6271 28.61 49.6271 27.466V17.5H52.2671V27.466C52.2671 28.984 52.6961 30.095 53.5541 30.799C54.4341 31.503 55.5561 31.855 56.9201 31.855C57.6021 31.855 58.2841 31.701 58.9661 31.393C59.6701 31.085 60.2531 30.612 60.7151 29.974C61.1991 29.314 61.4411 28.478 61.4411 27.466V17.5H64.0481V34ZM81.6815 25.585C81.6815 27.081 81.4505 28.434 80.9885 29.644C80.5265 30.832 79.8445 31.811 78.9425 32.581C78.0405 33.351 76.9185 33.813 75.5765 33.967C74.4765 34.143 73.4205 34.066 72.4085 33.736C71.3965 33.406 70.5825 32.977 69.9665 32.449V34H67.3595V10.9H69.9665V18.193C70.7805 17.775 71.5395 17.522 72.2435 17.434C72.9475 17.346 73.6075 17.302 74.2235 17.302C75.8075 17.302 77.1495 17.665 78.2495 18.391C79.3715 19.095 80.2185 20.074 80.7905 21.328C81.3845 22.56 81.6815 23.979 81.6815 25.585ZM79.0415 25.585C79.0415 23.869 78.6125 22.538 77.7545 21.592C76.9185 20.624 75.8075 20.063 74.4215 19.909C73.0355 19.755 71.5505 20.008 69.9665 20.668V30.238C71.0885 31.008 72.1885 31.459 73.2665 31.591C74.3445 31.723 75.3125 31.569 76.1705 31.129C77.0505 30.689 77.7435 30.007 78.2495 29.083C78.7775 28.137 79.0415 26.971 79.0415 25.585ZM109.778 34H107.204V24.265C107.204 22.769 106.808 21.658 106.016 20.932C105.246 20.206 104.245 19.843 103.013 19.843C101.737 19.843 100.681 20.206 99.8451 20.932C99.0091 21.658 98.5911 22.769 98.5911 24.265V34H96.0501V24.265C96.0501 22.725 95.6321 21.603 94.7961 20.899C93.9601 20.195 92.9151 19.843 91.6611 19.843C91.0011 19.843 90.3301 19.997 89.6481 20.305C88.9661 20.613 88.3941 21.097 87.9321 21.757C87.4921 22.395 87.2721 23.231 87.2721 24.265V34H84.6651V17.5H87.2721V19.183C87.8221 18.567 88.4821 18.105 89.2521 17.797C90.0221 17.489 90.8251 17.324 91.6611 17.302C92.7391 17.302 93.7951 17.522 94.8291 17.962C95.8851 18.38 96.7651 19.051 97.4691 19.975C98.0631 19.073 98.8771 18.413 99.9111 17.995C100.945 17.555 102.023 17.335 103.145 17.335C104.311 17.335 105.4 17.61 106.412 18.16C107.424 18.688 108.238 19.469 108.854 20.503C109.47 21.537 109.778 22.791 109.778 24.265V34ZM114.483 15.322C113.999 15.322 113.581 15.157 113.229 14.827C112.899 14.475 112.734 14.057 112.734 13.573C112.734 13.089 112.899 12.682 113.229 12.352C113.581 12 113.999 11.824 114.483 11.824C114.967 11.824 115.374 12 115.704 12.352C116.056 12.682 116.232 13.089 116.232 13.573C116.232 14.057 116.056 14.475 115.704 14.827C115.374 15.157 114.967 15.322 114.483 15.322ZM115.737 34H113.262V17.5H115.737V34ZM122.075 26.872V19.942H119.204V17.5H122.075V10.9H124.682V17.5H127.586V19.942H124.682V26.872C124.682 28.28 124.726 29.314 124.814 29.974C124.924 30.612 125.133 31.019 125.441 31.195C125.749 31.371 126.2 31.47 126.794 31.492H127.619V34.099H126.893C125.881 34.099 125.056 34.011 124.418 33.835C123.78 33.637 123.285 33.285 122.933 32.779C122.603 32.273 122.372 31.547 122.24 30.601C122.13 29.655 122.075 28.412 122.075 26.872Z" fill="white"/>
</svg>
